<svg width="345" height="124" viewBox="0 0 345 124" fill="none" xmlns="http://www.w3.org/2000/svg">
<path d="M159.384 65.6371H174.459V17.6541H159.384V65.6437V65.6371ZM117.123 23.3699C115.032 21.2717 112.561 19.6734 109.717 18.5881C106.872 17.5028 103.746 16.9569 100.338 16.9569C95.5728 16.9569 91.4109 18.0027 87.8389 20.0878C84.2734 22.1728 81.5141 25.0801 79.5675 28.803C77.6209 32.5258 76.6444 36.8539 76.6444 41.7804C76.6444 46.707 77.6209 51.2455 79.5675 54.9552C81.5141 58.6649 84.3127 61.5327 87.9503 63.5652C91.5878 65.591 95.8939 66.6106 100.855 66.6106C104.755 66.6106 108.235 66.0186 111.296 64.828C114.357 63.6375 116.887 61.98 118.899 59.8489C120.905 57.7178 122.281 55.2314 123.035 52.3965L109.605 50.6601C109.199 51.7322 108.602 52.6399 107.809 53.3766C107.016 54.1133 106.053 54.6789 104.926 55.0736C103.798 55.4617 102.546 55.659 101.157 55.659C99.1907 55.659 97.4735 55.2446 96.0054 54.4224C94.5307 53.5937 93.3968 52.3636 92.6037 50.7258C91.8828 49.2459 91.5092 47.4437 91.4436 45.3586H123.684V41.491C123.684 37.5774 123.113 34.111 121.973 31.0788C120.833 28.0531 119.214 25.4879 117.123 23.3831V23.3699ZM91.5289 36.4724C91.6796 35.1174 91.9876 33.894 92.4792 32.8218C93.1871 31.2827 94.2226 30.0922 95.5793 29.2371C96.936 28.382 98.5811 27.9545 100.515 27.9545C102.448 27.9545 104.126 28.3754 105.45 29.2174C106.78 30.0593 107.79 31.2695 108.484 32.8481C108.95 33.9137 109.245 35.1305 109.402 36.4789H91.5289V36.4724ZM153.125 17.1279C150.385 17.1279 148.026 17.8711 146.066 19.3642C144.1 20.8573 142.691 23.1858 141.819 26.343H141.386V17.6475H126.79V65.6371H141.865V39.7743C141.865 37.7747 142.271 36.0448 143.077 34.578C143.883 33.1178 145.011 31.9799 146.459 31.1643C147.901 30.3553 149.546 29.9475 151.395 29.9475C152.345 29.9475 153.407 30.0001 154.58 30.0987C155.753 30.204 156.684 30.3553 157.372 30.5526V17.5554C156.736 17.4107 156.048 17.2989 155.314 17.2265C154.58 17.1542 153.846 17.1213 153.125 17.1213V17.1279ZM36.7033 46.6675C36.2576 44.5232 23.6081 0 23.6081 0H0V65.6371H15.2909C15.2909 65.6371 14.7665 15.6479 14.7534 15.1086C14.9304 15.8255 30.3195 65.6371 30.3195 65.6371H43.0543C43.0543 65.6371 58.2861 15.398 58.5024 14.5034C58.4893 15.2796 57.9584 65.6371 57.9584 65.6371H73.3345V0H49.6412C49.6412 0 37.1359 44.5232 36.7099 46.6675H36.7033ZM342.835 25.5405C341.478 22.8043 339.565 20.6863 337.094 19.1932C334.623 17.7001 331.699 16.9569 328.324 16.9569C324.025 16.9569 320.59 18.1408 318.034 20.5021C316.055 22.3307 314.482 24.6394 313.289 27.3954L313.118 17.6541H298.785V65.6437H313.859V38.518C313.859 36.5776 314.2 34.9398 314.875 33.6046C315.55 32.2693 316.507 31.2498 317.733 30.5394C318.958 29.8291 320.38 29.4739 321.999 29.4739C324.451 29.4739 326.364 30.2369 327.741 31.7563C329.117 33.2757 329.799 35.4002 329.799 38.1233V65.6371H344.873V35.1634C344.873 31.48 344.198 28.2768 342.842 25.5339L342.835 25.5405ZM210.998 25.5208H210.697C210.035 24.0145 209.104 22.6069 207.905 21.3046C206.705 20.0022 205.217 18.9498 203.441 18.154C201.665 17.3581 199.561 16.9569 197.136 16.9569C193.643 16.9569 190.425 17.8777 187.475 19.7194C184.526 21.5611 182.173 24.3105 180.416 27.9808C178.653 31.6445 177.775 36.2158 177.775 41.6949C177.775 47.174 178.627 51.5349 180.331 55.2117C182.035 58.8886 184.369 61.684 187.324 63.5783C190.28 65.4726 193.584 66.4264 197.221 66.4264C199.62 66.4264 201.698 66.0317 203.461 65.2556C205.224 64.4729 206.712 63.4468 207.924 62.1707C209.137 60.8947 210.074 59.4871 210.742 57.9545H211.175V65.6502H226.033V0.87481H211.005V25.5208H210.998ZM210.284 48.45C209.55 50.3772 208.494 51.8769 207.125 52.949C205.755 54.0212 204.116 54.554 202.209 54.554C200.302 54.554 198.67 54.0212 197.313 52.949C195.956 51.8769 194.934 50.3772 194.239 48.45C193.544 46.5228 193.197 44.2536 193.197 41.6489C193.197 39.0442 193.544 36.7815 194.239 34.8674C194.934 32.9534 195.95 31.4669 197.293 30.4145C198.637 29.3555 200.275 28.8293 202.209 28.8293C204.142 28.8293 205.755 29.3489 207.125 30.3947C208.494 31.4406 209.55 32.9139 210.284 34.828C211.018 36.742 211.391 39.0179 211.391 41.6554C211.391 44.293 211.024 46.5294 210.284 48.4566V48.45ZM238.742 0C236.52 0 234.639 0.710372 233.112 2.13112C231.578 3.55186 230.818 5.30148 230.818 7.39313C230.818 9.48479 231.578 11.1884 233.112 12.6091C234.639 14.0299 236.52 14.7402 238.742 14.7402C240.964 14.7402 242.799 14.0299 244.326 12.6091C245.853 11.1884 246.62 9.4519 246.62 7.39313C246.62 5.33437 245.853 3.55186 244.326 2.13112C242.792 0.710372 240.931 0 238.742 0ZM166.921 0C164.7 0 162.818 0.710372 161.291 2.13112C159.758 3.55186 158.997 5.30148 158.997 7.39313C158.997 9.48479 159.758 11.1884 161.291 12.6091C162.818 14.0299 164.7 14.7402 166.921 14.7402C169.143 14.7402 170.978 14.0299 172.505 12.6091C174.033 11.1884 174.799 9.4519 174.799 7.39313C174.799 5.33437 174.033 3.55186 172.505 2.13112C170.972 0.710372 169.11 0 166.921 0ZM231.211 65.6371H246.286V17.6541H231.211V65.6437V65.6371ZM287.564 21.1533C285.643 19.7786 283.382 18.7328 280.787 18.0224C278.185 17.312 275.36 16.9569 272.299 16.9569C268.17 16.9569 264.591 17.5488 261.557 18.7394C258.522 19.9299 256.091 21.6006 254.262 23.758C252.427 25.9154 251.234 28.4478 250.69 31.3419L264.421 32.7363C264.65 31.7234 265.109 30.8354 265.784 30.0856C266.459 29.3292 267.325 28.7438 268.38 28.3228C269.435 27.9018 270.654 27.6914 272.037 27.6914C273.42 27.6914 274.6 27.8953 275.57 28.3031C276.54 28.7109 277.28 29.2963 277.798 30.0659C278.316 30.8354 278.578 31.7563 278.578 32.8284V33.0455C278.578 33.9992 278.204 34.749 277.451 35.2818C276.697 35.8212 275.484 36.2224 273.813 36.4987C272.142 36.7749 269.927 37.0249 267.187 37.2617C264.736 37.4656 262.422 37.8668 260.259 38.4785C258.096 39.0902 256.182 39.965 254.518 41.1095C252.853 42.254 251.555 43.7405 250.618 45.5625C249.681 47.391 249.209 49.634 249.209 52.2979C249.209 55.488 249.884 58.119 251.241 60.2106C252.597 62.2957 254.472 63.8677 256.871 64.9267C259.269 65.9857 262.009 66.5119 265.103 66.5119C267.325 66.5119 269.317 66.2225 271.08 65.6437C272.843 65.0648 274.377 64.2098 275.694 63.0784C277.005 61.9471 278.1 60.5592 278.965 58.9083H279.312V65.6437H293.607V33.131C293.607 30.5263 293.082 28.2176 292.027 26.218C290.972 24.2184 289.484 22.5346 287.564 21.1533ZM278.703 48.5158C278.703 50.0812 278.303 51.4625 277.51 52.6662C276.717 53.8699 275.635 54.8105 274.259 55.4945C272.889 56.172 271.362 56.5141 269.691 56.5141C268.478 56.5141 267.41 56.3233 266.486 55.9484C265.561 55.5735 264.834 55.0144 264.297 54.2777C263.759 53.541 263.497 52.6465 263.497 51.6072C263.497 50.568 263.772 49.6208 264.323 48.871C264.873 48.1212 265.666 47.4963 266.702 47.003C267.737 46.5097 268.983 46.161 270.425 45.9571C271.172 45.8453 271.945 45.7204 272.745 45.5888C273.538 45.4572 274.311 45.306 275.065 45.1349C275.812 44.9639 276.507 44.7798 277.143 44.589C277.778 44.3983 278.296 44.1878 278.703 43.9576V48.5224V48.5158Z" fill="white"></path>
<path d="M47.6029 84.6329C45.5907 83.0017 43.1854 82.1861 40.3867 82.1861C37.5881 82.1861 35.2155 83.0017 33.1968 84.6329C31.1847 86.2641 29.6314 88.6057 28.5565 91.6445C27.475 94.6899 26.9376 98.3339 26.9376 102.57C26.9376 106.806 27.475 110.45 28.5565 113.482C29.6379 116.514 31.1781 118.843 33.1837 120.467C35.1893 122.092 37.5881 122.901 40.3867 122.901C43.1854 122.901 45.6038 122.092 47.616 120.467C49.6215 118.843 51.1618 116.508 52.2301 113.469C53.2984 110.423 53.8359 106.793 53.8359 102.57C53.8359 98.347 53.2984 94.6834 52.2301 91.6445C51.1618 88.5992 49.6216 86.2641 47.6029 84.6329ZM49.0776 111.693C48.2911 114.238 47.1637 116.192 45.6956 117.547C44.2275 118.902 42.4579 119.586 40.3933 119.586C38.3287 119.586 36.5788 118.908 35.0975 117.547C33.6228 116.192 32.489 114.238 31.7025 111.693C30.916 109.147 30.5227 106.109 30.5227 102.576C30.5227 99.0443 30.916 95.9594 31.7025 93.4205C32.489 90.8816 33.6228 88.928 35.0975 87.5533C36.5722 86.1786 38.3353 85.488 40.3933 85.488C42.4513 85.488 44.2275 86.172 45.6956 87.5402C47.1637 88.9083 48.2911 90.8618 49.0776 93.4073C49.8641 95.9528 50.2573 99.0114 50.2573 102.576C50.2573 106.141 49.8641 109.147 49.0776 111.693ZM5.17123 118.81L15.2253 108.003C17.4144 105.681 19.1382 103.688 20.3834 102.024C21.6287 100.366 22.5135 98.8469 23.0379 97.4722C23.5622 96.0975 23.8178 94.6636 23.8178 93.1705C23.8178 91.0789 23.3197 89.1977 22.3169 87.5402C21.3141 85.8826 19.9378 84.5671 18.1812 83.6002C16.4247 82.6333 14.4126 82.1466 12.1449 82.1466C9.87712 82.1466 7.77979 82.6465 5.9905 83.6529C4.20122 84.6592 2.79863 86.0339 1.77618 87.777C0.747175 89.5266 0.23595 91.5327 0.23595 93.8086H3.81452C3.81452 92.1773 4.15534 90.7369 4.83697 89.4805C5.5186 88.2308 6.47551 87.2508 7.71425 86.5404C8.95298 85.83 10.4015 85.4748 12.0662 85.4748C13.731 85.4748 15.068 85.7971 16.2936 86.4352C17.5258 87.0732 18.4893 87.9743 19.1971 89.1385C19.905 90.3027 20.2589 91.6643 20.2589 93.2232C20.2589 94.4992 20.0164 95.716 19.5314 96.8671C19.0464 98.0182 18.2861 99.2613 17.2506 100.583C16.215 101.905 14.8583 103.471 13.1804 105.28L0 119.52V122.368H24.8534V119.014H5.17123V118.803V118.81ZM61.2552 118.81L71.3093 108.003C73.4984 105.681 75.2221 103.688 76.4674 102.024C77.7127 100.366 78.5975 98.8469 79.1218 97.4722C79.6462 96.0975 79.9018 94.6636 79.9018 93.1705C79.9018 91.0789 79.4037 89.1977 78.4009 87.5402C77.3981 85.8826 76.0217 84.5671 74.2652 83.6002C72.5087 82.6333 70.4966 82.1466 68.2288 82.1466C65.9611 82.1466 63.8637 82.6465 62.0745 83.6529C60.2852 84.6592 58.8826 86.0339 57.8601 87.777C56.8311 89.5266 56.3199 91.5327 56.3199 93.8086H59.8985C59.8985 92.1773 60.2393 90.7369 60.9209 89.4805C61.6026 88.2308 62.5595 87.2508 63.7982 86.5404C65.0369 85.83 66.4854 85.4748 68.1502 85.4748C69.8149 85.4748 71.152 85.7971 72.3776 86.4352C73.6098 87.0732 74.5732 87.9743 75.2811 89.1385C75.9889 90.3027 76.3429 91.6643 76.3429 93.2232C76.3429 94.4992 76.1004 95.716 75.6154 96.8671C75.1303 98.0182 74.3701 99.2613 73.3345 100.583C72.299 101.905 70.9422 103.471 69.2644 105.28L56.084 119.52V122.368H80.9373V119.014H61.2552V118.803V118.81ZM107.239 103.267C106.145 101.333 104.676 99.8138 102.848 98.7022C101.019 97.5906 98.9875 97.0381 96.7591 97.0381C95.3303 97.0381 93.9539 97.2749 92.6496 97.7551C91.3388 98.2352 90.1852 98.9127 89.1759 99.7941C88.1666 100.675 87.3735 101.695 86.7902 102.866H86.5805C86.5608 99.2087 86.9541 96.091 87.7471 93.4994C88.5402 90.9079 89.7068 88.9346 91.247 87.5796C92.7873 86.2247 94.6421 85.5406 96.8181 85.5406C98.994 85.5406 100.842 86.2049 102.206 87.5204C103.569 88.8425 104.427 90.5329 104.781 92.5917H108.439C108.19 90.5329 107.554 88.7176 106.518 87.1455C105.483 85.5735 104.139 84.3567 102.487 83.4818C100.836 82.6136 98.9351 82.1795 96.7984 82.1795C94.4651 82.1795 92.4333 82.7189 90.7096 83.8041C88.9858 84.8894 87.5505 86.4154 86.4166 88.3953C85.2762 90.3751 84.4241 92.7035 83.867 95.3806C83.3099 98.0576 83.0347 100.998 83.0347 104.194C83.0347 107.569 83.3886 110.443 84.0964 112.818C84.8043 115.199 85.7743 117.126 87.013 118.606C88.2518 120.086 89.6675 121.178 91.2536 121.868C92.8462 122.559 94.5176 122.908 96.2675 122.908C98.7974 122.908 101.006 122.322 102.9 121.151C104.794 119.981 106.263 118.408 107.318 116.442C108.366 114.475 108.897 112.291 108.897 109.891C108.897 107.49 108.347 105.194 107.252 103.26L107.239 103.267ZM104.074 114.778C103.287 116.244 102.212 117.409 100.849 118.277C99.4856 119.145 97.9585 119.579 96.261 119.579C94.5634 119.579 93.1674 119.171 91.8566 118.356C90.5457 117.54 89.4905 116.422 88.6843 115.001C87.8782 113.581 87.4063 111.956 87.2621 110.127C87.1572 108.832 87.3145 107.595 87.7406 106.411C88.1666 105.227 88.7892 104.181 89.6216 103.267C90.454 102.353 91.4305 101.636 92.5644 101.11C93.6983 100.583 94.9174 100.327 96.2282 100.327C97.9454 100.327 99.479 100.754 100.842 101.603C102.206 102.458 103.28 103.602 104.067 105.05C104.853 106.497 105.247 108.108 105.247 109.884C105.247 111.66 104.853 113.304 104.067 114.771L104.074 114.778Z" fill="white"></path>
<path d="M205.29 123.31H209.143V82.154H205.29V123.31ZM182.901 82.1606H179.021V123.316H202.55V119.837H182.901V82.1672V82.1606ZM237.661 104.998C236.605 104.13 235.406 103.399 234.069 102.801C232.732 102.202 231.336 101.702 229.887 101.295L225.509 100.051C224.061 99.6305 222.717 99.1043 221.478 98.4794C220.24 97.8546 219.243 97.0718 218.49 96.1313C217.736 95.1907 217.362 94.0396 217.362 92.6781C217.362 91.2047 217.769 89.8958 218.575 88.7578C219.381 87.6134 220.508 86.7188 221.944 86.0676C223.386 85.4165 225.037 85.0876 226.912 85.0876C229.645 85.0876 231.899 85.7782 233.669 87.1595C235.439 88.5408 236.428 90.4088 236.625 92.7636H240.426C240.335 90.593 239.712 88.6592 238.565 86.9753C237.418 85.2915 235.858 83.9694 233.885 83.0091C231.913 82.0488 229.625 81.5752 227.017 81.5752C224.408 81.5752 222.147 82.0488 220.122 82.9959C218.096 83.9431 216.491 85.2652 215.317 86.9622C214.144 88.6592 213.554 90.6193 213.554 92.8425C213.554 95.4538 214.433 97.6244 216.196 99.3477C217.959 101.071 220.541 102.419 223.956 103.393L228.74 104.774C230.523 105.287 232.05 105.873 233.322 106.53C234.6 107.181 235.576 107.977 236.251 108.905C236.927 109.832 237.267 110.97 237.267 112.319C237.267 113.937 236.815 115.364 235.917 116.587C235.019 117.811 233.787 118.765 232.214 119.449C230.648 120.133 228.832 120.468 226.781 120.468C224.893 120.468 223.182 120.159 221.662 119.541C220.141 118.922 218.922 118.028 218.018 116.85C217.107 115.673 216.589 114.239 216.464 112.542H212.532C212.663 114.825 213.318 116.824 214.498 118.547C215.684 120.271 217.323 121.613 219.414 122.566C221.505 123.52 223.962 124 226.787 124C229.612 124 232.28 123.494 234.41 122.481C236.54 121.468 238.178 120.087 239.338 118.324C240.492 116.568 241.075 114.575 241.075 112.345C241.075 110.707 240.767 109.286 240.151 108.089C239.535 106.892 238.703 105.859 237.647 104.998H237.661ZM267.98 103.663C266.722 102.827 265.417 102.34 264.061 102.215V101.966C265.326 101.597 266.46 101.025 267.462 100.255C268.465 99.4792 269.252 98.486 269.828 97.2692C270.405 96.0523 270.694 94.5987 270.694 92.9083C270.694 90.8298 270.228 88.9749 269.304 87.3568C268.38 85.7388 267.004 84.4693 265.175 83.5485C263.346 82.6276 261.105 82.1672 258.444 82.1672H244.464V123.323H259.191C262.147 123.323 264.592 122.856 266.525 121.915C268.459 120.975 269.907 119.685 270.857 118.034C271.814 116.383 272.286 114.502 272.286 112.384C272.286 110.266 271.88 108.589 271.074 107.122C270.268 105.662 269.232 104.511 267.98 103.669V103.663ZM248.318 85.6401H258.418C261.19 85.6401 263.3 86.3176 264.762 87.6726C266.224 89.0275 266.951 90.81 266.951 93.0201C266.951 94.5132 266.61 95.8353 265.935 96.9995C265.254 98.1571 264.31 99.078 263.084 99.7489C261.865 100.42 260.436 100.755 258.804 100.755H248.318V85.6467V85.6401ZM266.178 117.745C264.618 119.133 262.258 119.83 259.106 119.83H248.318V104.09H259.296C261.151 104.09 262.763 104.452 264.139 105.182C265.516 105.912 266.591 106.892 267.357 108.135C268.131 109.378 268.511 110.793 268.511 112.378C268.511 114.568 267.731 116.357 266.171 117.752L266.178 117.745ZM340.987 82.1606V109.589C340.987 110.437 340.993 111.424 341.013 112.542C341.033 113.667 341.066 114.857 341.125 116.12C341.157 116.936 341.216 117.758 341.269 118.587C340.816 117.752 340.358 116.929 339.886 116.133C339.191 114.956 338.523 113.858 337.893 112.845C337.258 111.832 336.687 110.95 336.17 110.194L317.457 82.1606H313.027V123.316H316.907V97.2165C316.907 96.4075 316.887 95.4209 316.855 94.2632C316.815 93.1056 316.776 91.7901 316.73 90.3101C316.697 89.2906 316.664 88.1988 316.625 87.074C317.385 88.3435 318.074 89.4814 318.683 90.5075C319.502 91.869 320.25 93.0924 320.925 94.1646C321.606 95.2433 322.262 96.2694 322.904 97.2428L340.377 123.316H344.86V82.1606H340.98H340.987ZM300.987 84.2325C298.306 82.4829 295.232 81.6081 291.765 81.6081C288.298 81.6081 285.191 82.4829 282.504 84.2325C279.817 85.9821 277.707 88.4421 276.173 91.6059C274.639 94.7763 273.872 98.4926 273.872 102.761C273.872 107.03 274.639 110.727 276.173 113.891C277.707 117.061 279.817 119.508 282.504 121.251C285.191 122.994 288.278 123.862 291.765 123.862C295.252 123.862 298.306 122.994 300.987 121.251C303.668 119.508 305.771 117.054 307.305 113.891C308.839 110.72 309.606 107.01 309.606 102.761C309.606 98.5123 308.839 94.7697 307.305 91.6059C305.771 88.4356 303.668 85.9821 300.987 84.2325ZM303.956 112.154C302.73 114.772 301.052 116.772 298.935 118.159C296.818 119.547 294.426 120.244 291.765 120.244C289.104 120.244 286.659 119.547 284.542 118.146C282.425 116.745 280.748 114.746 279.522 112.141C278.29 109.536 277.68 106.412 277.68 102.761C277.68 99.1109 278.296 95.9274 279.522 93.3161C280.748 90.7048 282.432 88.6987 284.556 87.3108C286.686 85.9229 289.085 85.2257 291.765 85.2257C294.446 85.2257 296.818 85.9229 298.935 87.3108C301.052 88.6987 302.73 90.7048 303.956 93.3161C305.182 95.9274 305.798 99.078 305.798 102.761C305.798 106.445 305.182 109.536 303.956 112.154Z" fill="white"></path>
<path d="M134.014 107.266C133.391 106.825 127.224 102.116 126.666 101.754C126.103 101.392 125.362 100.827 124.608 101.346C124.228 101.609 124.078 101.918 124.019 102.293V114.981C124.058 115.416 124.176 115.817 124.497 116.113C125.12 116.678 125.729 116.468 126.463 115.942C127.466 115.231 133.312 110.765 133.935 110.305C134.558 109.844 135.193 109.483 135.134 108.726C135.075 107.963 134.636 107.707 134.014 107.266ZM163.298 101.353C162.544 100.833 161.797 101.399 161.24 101.761C160.683 102.122 154.515 106.832 153.892 107.273C153.27 107.713 152.831 107.97 152.772 108.733C152.713 109.489 153.348 109.858 153.971 110.311C154.587 110.772 160.44 115.238 161.443 115.948C162.183 116.474 162.793 116.685 163.409 116.119C163.73 115.823 163.848 115.422 163.888 114.988V102.3C163.829 101.925 163.678 101.616 163.298 101.353ZM163.888 92.7691C163.888 91.868 163.888 86.4284 163.888 85.3628C163.888 84.3893 163.888 83.6 163.153 83.1396C162.655 82.8239 162.144 82.9949 161.39 83.5145C160.637 84.0342 146.486 93.7163 145.85 94.1438C145.215 94.5714 144.507 95.2094 143.989 95.2094C143.471 95.2094 143.255 94.9989 142.174 94.2622C141.092 93.5255 127.984 84.5604 126.778 83.7513C125.572 82.9489 125.198 82.8042 124.608 83.2054C124.019 83.6066 124.019 84.2446 124.019 84.909V91.9403C124.019 93.6242 124.019 93.6965 124.936 94.453C125.854 95.2094 142.075 106.214 142.626 106.595C143.17 106.977 143.589 107.233 144.042 107.233C144.494 107.233 144.821 106.924 145.549 106.404C146.276 105.885 162.052 95.091 162.931 94.4793C163.802 93.861 163.894 93.6768 163.894 92.7757L163.888 92.7691Z" fill="white"></path>
</svg>
